<svg xmlns="http://www.w3.org/2000/svg" xmlns:xlink="http://www.w3.org/1999/xlink" width="23.808" height="26" viewBox="0 0 23.808 26"><defs><style>.a{fill:url(#a);}</style><linearGradient id="a" x1="0.5" x2="0.5" y2="1" gradientUnits="objectBoundingBox"><stop offset="0" stop-color="#6a11cb"/><stop offset="1" stop-color="#2575fc"/></linearGradient></defs><g transform="translate(0 0)"><g transform="translate(0 0)"><path class="a" d="M13.3,13.007,23.5,1.862A1.154,1.154,0,0,0,23.529.331.934.934,0,0,0,22.127.3L22.1.331,11.9,11.476,1.692.331A.934.934,0,0,0,.29.358a1.156,1.156,0,0,0,0,1.5L10.5,13.007.29,24.152a1.154,1.154,0,0,0,0,1.531.934.934,0,0,0,1.4,0L11.9,14.538,22.1,25.683a.934.934,0,0,0,1.4-.027,1.156,1.156,0,0,0,0-1.5Z" transform="translate(0 0)"/></g></g></svg>